<svg xmlns="http://www.w3.org/2000/svg" version="1.1" xmlns:xlink="http://www.w3.org/1999/xlink" width="621.3295612783726" height="200" viewBox="0.7886956334114075 10.702413558959961 100.30956268310547 25.507585525512695"><path d="M7.05 13.36L7.05 13.36Q7.79 12.27 8.43 12.67Q9.06 13.07 9.08 13.43Q9.10 13.79 9.51 14.65Q9.92 15.51 10.43 16.95Q10.94 18.40 11.10 21.04Q11.27 23.69 11.76 24.48Q12.25 25.27 13.79 23.45Q15.33 21.62 16.58 20.13Q17.83 18.63 19.06 17.53Q20.29 16.43 20.92 15.81Q21.54 15.20 22.61 14.37Q23.67 13.54 24.17 13.62Q24.67 13.71 24.99 13.99Q25.31 14.28 25.48 14.78Q25.64 15.27 25.27 17.45Q24.90 19.63 24.57 21.81Q24.24 23.98 24.12 25.59Q24.00 27.19 24.21 27.56Q24.41 27.93 24.77 28.02Q25.12 28.11 25.63 27.77Q26.15 27.44 26.96 26.39Q27.77 25.33 26.50 27.59Q25.23 29.84 24.29 30.24Q23.34 30.64 22.93 30.44Q22.52 30.23 22.23 29.86Q21.93 29.49 21.65 28.54Q21.37 27.60 21.48 26.53Q21.60 25.47 21.89 23.42Q22.19 21.37 22.31 20.59Q22.44 19.80 22.61 18.65Q22.77 17.50 22.11 17.87Q21.45 18.24 19.98 19.92Q18.52 21.60 16.49 24.10Q14.47 26.60 13.64 27.03Q12.81 27.46 12.40 27.51Q11.99 27.56 11.37 27.39Q10.74 27.23 10.14 26.75Q9.53 26.27 9.29 24.79Q9.04 23.30 8.82 21.25Q8.59 19.20 8.35 18.22Q8.11 17.25 6.76 20.43Q5.41 23.61 4.86 25.19Q4.32 26.76 3.70 28.26Q3.09 29.77 2.75 30.09Q2.42 30.41 1.89 30.28Q1.37 30.16 1.04 29.86Q0.70 29.57 0.82 29.04Q0.94 28.52 1.19 28.14Q1.45 27.77 1.56 27.28Q1.68 26.78 2.74 24.18Q3.81 21.58 4.19 20.32Q4.57 19.06 5.44 16.76Q6.31 14.45 7.05 13.36ZM43.63 10.78L43.63 10.78Q43.79 10.63 44.23 10.77Q44.67 10.92 44.84 11.64Q45.02 12.36 44.91 12.48Q44.80 12.60 44.66 12.99Q44.51 13.38 44.08 14.51Q43.65 15.64 42.41 18.87Q41.17 22.09 40.79 23.02Q40.41 23.95 40.83 23.78Q41.25 23.61 41.72 23.54Q42.19 23.48 43.13 23.29Q44.08 23.11 45.49 22.71Q46.89 22.30 47.12 22.13Q47.34 21.95 47.64 21.11Q47.93 20.27 48.84 17.30Q49.75 14.34 49.79 14.11Q49.82 13.89 50.08 13.96Q50.33 14.04 50.65 14.26Q50.98 14.47 51.04 14.83Q51.11 15.20 51.15 15.49Q51.19 15.78 50.76 17.45Q50.33 19.12 50.15 20.07Q49.96 21.02 50.07 21.15Q50.18 21.29 51.02 21.07Q51.86 20.86 51.88 21.77Q51.91 22.68 50.90 22.97Q49.88 23.26 49.59 23.38Q49.30 23.50 49.04 24.27Q48.79 25.04 47.91 27.47Q47.03 29.90 46.67 30.79Q46.31 31.68 45.62 32.65Q44.92 33.61 45.25 31.98Q45.59 30.35 45.72 29.95Q45.86 29.55 46.01 28.64Q46.15 27.73 46.38 26.72Q46.60 25.70 46.71 24.94Q46.82 24.18 44.93 24.74Q43.05 25.29 41.32 25.80Q39.59 26.31 39.23 27.07Q38.87 27.83 37.86 30.89Q36.86 33.95 36.58 34.80Q36.31 35.66 35.88 36.03Q35.45 36.39 35.13 36.03Q34.80 35.66 34.62 35.51Q34.43 35.35 35.45 32.17Q36.46 28.98 36.82 28.04Q37.17 27.09 36.63 26.88Q36.09 26.66 36.03 26.23Q35.96 25.80 36.06 25.40Q36.17 25 36.87 24.60Q37.56 24.20 37.88 23.95Q38.20 23.69 38.54 22.93Q38.87 22.17 39.19 21.34Q39.51 20.51 40.43 18.08Q41.35 15.64 42.25 13.36Q43.14 11.07 43.31 11.00Q43.48 10.92 43.63 10.78ZM57.44 21.66L57.44 21.66Q57.89 21.54 58.43 21.62Q58.96 21.70 59.29 21.95Q59.61 22.21 59.90 22.95Q60.20 23.69 59.64 23.95Q59.08 24.20 58.63 23.77Q58.18 23.34 57.70 23.59Q57.21 23.85 56.73 24.11Q56.25 24.38 55.55 24.94Q54.84 25.51 54.10 26.39Q53.36 27.27 53.28 27.51Q53.20 27.75 53.66 27.44Q54.12 27.13 55.07 26.49Q56.02 25.86 57.45 25.20Q58.89 24.53 59.27 24.68Q59.65 24.82 59.92 25.21Q60.20 25.61 60.23 25.89Q60.27 26.17 60.15 26.34Q60.02 26.50 59.85 27.09Q59.69 27.68 59.88 28.22Q60.08 28.77 60.38 28.97Q60.68 29.18 61.21 29.09Q61.74 29.00 62.51 28.29Q63.28 27.58 62.44 28.62Q61.60 29.67 61.11 29.95Q60.63 30.23 60.35 30.22Q60.08 30.21 59.64 30.05Q59.20 29.88 58.81 29.53Q58.42 29.18 58.19 28.67Q57.97 28.16 57.89 27.92Q57.81 27.68 57.53 27.38Q57.25 27.09 56.84 27.26Q56.43 27.42 55.40 28.16Q54.38 28.91 53.49 29.38Q52.60 29.86 51.89 30.05Q51.19 30.23 50.99 30.18Q50.78 30.12 50.54 29.74Q50.29 29.36 50.25 28.91Q50.21 28.46 50.38 28.00Q50.55 27.54 51.63 26.16Q52.71 24.79 53.72 23.91Q54.73 23.03 55.86 22.41Q56.99 21.80 57.44 21.66ZM64.65 22.01L64.65 22.01Q65.39 21.00 65.86 21.04Q66.33 21.07 66.46 21.43Q66.60 21.78 66.70 22.08Q66.80 22.38 66.89 22.96Q66.99 23.54 66.10 25.20Q65.21 26.86 66.23 25.62Q67.25 24.38 67.97 24.07Q68.69 23.77 69.30 24.07Q69.90 24.38 70.06 24.80Q70.21 25.23 70.25 25.78Q70.29 26.33 70.41 26.41Q70.53 26.48 71.70 25.23Q72.87 23.98 73.76 23.58Q74.65 23.18 75.23 23.42Q75.82 23.65 76.26 24.34Q76.70 25.02 77.40 26.33Q78.11 27.64 78.86 28.25Q79.61 28.87 80.20 28.98Q80.78 29.10 82.23 28.35Q83.67 27.60 82.87 28.07Q82.07 28.54 81.26 28.88Q80.45 29.22 80.12 29.40Q79.79 29.59 79.21 29.73Q78.63 29.86 78.13 29.61Q77.62 29.36 77.15 28.96Q76.68 28.55 75.98 27.63Q75.27 26.70 74.97 26.25Q74.67 25.80 74.22 25.88Q73.77 25.96 73.28 26.38Q72.79 26.80 71.94 27.58Q71.09 28.36 70.62 29.22Q70.14 30.08 70.04 30.32Q69.94 30.57 69.53 31.01Q69.12 31.45 68.75 31.34Q68.38 31.23 68.21 30.95Q68.05 30.66 68.18 29.94Q68.32 29.22 68.41 28.55Q68.50 27.89 68.54 27.11Q68.59 26.33 68.09 26.28Q67.58 26.23 66.40 27.39Q65.21 28.55 64.90 29.20Q64.59 29.84 64.40 30.12Q64.22 30.39 64.01 30.55Q63.81 30.70 63.19 30.51Q62.58 30.31 62.50 30Q62.42 29.69 62.79 28.73Q63.16 27.77 63.77 25.78Q64.38 23.79 64.61 23.26Q64.84 22.73 61.36 25.18Q57.87 27.62 59.40 26.37Q60.94 25.12 62.42 24.07Q63.91 23.03 64.65 22.01ZM86.88 21.78L86.88 21.78Q87.19 21.74 87.76 21.94Q88.34 22.15 88.48 22.33Q88.61 22.52 88.62 22.81Q88.63 23.11 88.59 23.54Q88.55 23.98 88.26 24.52Q87.97 25.06 86.96 25.95Q85.96 26.84 85.24 27.53Q84.53 28.22 84.21 28.58Q83.89 28.95 83.28 29.38Q82.68 29.82 83.26 29.85Q83.85 29.88 85.09 30.14Q86.33 30.39 87.29 30.58Q88.26 30.76 88.88 30.66Q89.49 30.57 90.85 30.29Q92.21 30.02 91.15 30.27Q90.10 30.53 89.25 30.80Q88.40 31.07 87.90 31.28Q87.40 31.48 86.95 31.70Q86.50 31.91 85.65 31.90Q84.80 31.89 84.25 31.73Q83.69 31.56 82.71 31.48Q81.72 31.41 81.33 31.44Q80.94 31.46 80.69 31.65Q80.45 31.84 80.10 31.85Q79.75 31.86 79.53 31.78Q79.32 31.70 79.16 31.48Q79.00 31.27 79.09 30.73Q79.18 30.20 79.41 30Q79.65 29.80 80.07 29.60Q80.49 29.39 81.65 28.40Q82.81 27.40 83.51 26.74Q84.20 26.07 85.02 25.37Q85.84 24.67 86.16 24.29Q86.48 23.91 85.89 23.98Q85.29 24.06 84.14 24.51Q82.99 24.96 82.70 25.30Q82.40 25.64 82.14 25.58Q81.88 25.51 81.75 25.24Q81.62 24.98 81.71 24.47Q81.80 23.96 82.54 23.46Q83.28 22.95 84.22 22.56Q85.16 22.17 85.87 21.98Q86.58 21.80 86.88 21.78ZM95.66 21.66L95.66 21.66Q96.11 21.54 96.65 21.62Q97.19 21.70 97.51 21.95Q97.83 22.21 98.13 22.95Q98.42 23.69 97.86 23.95Q97.30 24.20 96.86 23.77Q96.41 23.34 95.92 23.59Q95.43 23.85 94.95 24.11Q94.47 24.38 93.77 24.94Q93.07 25.51 92.32 26.39Q91.58 27.27 91.50 27.51Q91.43 27.75 91.88 27.44Q92.34 27.13 93.29 26.49Q94.24 25.86 95.67 25.20Q97.11 24.53 97.49 24.68Q97.87 24.82 98.14 25.21Q98.42 25.61 98.46 25.89Q98.50 26.17 98.37 26.34Q98.24 26.50 98.08 27.09Q97.91 27.68 98.11 28.22Q98.30 28.77 98.60 28.97Q98.91 29.18 99.43 29.09Q99.96 29.00 100.73 28.29Q101.50 27.58 100.66 28.62Q99.82 29.67 99.34 29.95Q98.85 30.23 98.57 30.22Q98.30 30.21 97.86 30.05Q97.42 29.88 97.03 29.53Q96.64 29.18 96.42 28.67Q96.19 28.16 96.11 27.92Q96.04 27.68 95.75 27.38Q95.47 27.09 95.06 27.26Q94.65 27.42 93.62 28.16Q92.60 28.91 91.71 29.38Q90.82 29.86 90.12 30.05Q89.41 30.23 89.21 30.18Q89.00 30.12 88.76 29.74Q88.52 29.36 88.48 28.91Q88.44 28.46 88.60 28.00Q88.77 27.54 89.85 26.16Q90.94 24.79 91.94 23.91Q92.95 23.03 94.08 22.41Q95.21 21.80 95.66 21.66Z" fill="black"></path></svg>